<?xml version="1.0" encoding="UTF-8" standalone="no"?>
<!-- Created with Inkscape (http://www.inkscape.org/) -->

<svg
   width="17.707582mm"
   height="20.294172mm"
   viewBox="0 0 17.707582 20.294172"
   version="1.1"
   id="svg6118"
   inkscape:version="1.1.1 (3bf5ae0d25, 2021-09-20)"
   sodipodi:docname="desenho.svg"
   xmlns:inkscape="http://www.inkscape.org/namespaces/inkscape"
   xmlns:sodipodi="http://sodipodi.sourceforge.net/DTD/sodipodi-0.dtd"
   xmlns="http://www.w3.org/2000/svg"
   xmlns:svg="http://www.w3.org/2000/svg">
  <sodipodi:namedview
     id="namedview6120"
     pagecolor="#ffffff"
     bordercolor="#666666"
     borderopacity="1.0"
     inkscape:pageshadow="2"
     inkscape:pageopacity="0.0"
     inkscape:pagecheckerboard="0"
     inkscape:document-units="mm"
     showgrid="false"
     fit-margin-top="0"
     fit-margin-left="0"
     fit-margin-right="0"
     fit-margin-bottom="0"
     inkscape:zoom="5.2410024"
     inkscape:cx="23.087186"
     inkscape:cy="41.881301"
     inkscape:window-width="1366"
     inkscape:window-height="705"
     inkscape:window-x="-8"
     inkscape:window-y="-8"
     inkscape:window-maximized="1"
     inkscape:current-layer="layer1" />
  <defs
     id="defs6115" />
  <g
     inkscape:label="Camada 1"
     inkscape:groupmode="layer"
     id="layer1"
     transform="translate(-45.405824,-74.954837)">
    <path
       style="fill:#ff780a;stroke-width:0.371;fill-opacity:1;stroke:#ff780a;stroke-opacity:1;stroke-miterlimit:4;stroke-dasharray:none"
       d="m 52.938556,94.634509 c -1.31301,-0.70651 -1.19697,-0.6403 -4.80143,-2.73909 l -2.731302,-1.59036 0.0183,-5.1739 0.0183,-5.17389 2.998562,-1.73012 c 1.64921,-0.95157 3.63307,-2.0771 4.40859,-2.501212 l 1.41004,-0.7711 1.41004,0.7711 c 0.77552,0.424112 2.75938,1.549642 4.40859,2.501212 l 2.99856,1.73012 0.0183,5.17534 0.0183,5.17535 -2.90978,1.67686 c -3.8961,2.24525 -5.78225,3.26419 -6.0423,3.26419 -0.0444,0 -0.59472,-0.27652 -1.22283,-0.6145 z m 2.49306,-1.74902 c 0.92337,-0.46715 1.83271,-0.97089 5.03932,-2.79154 l 1.17801,-0.66884 0.0166,-4.28102 0.0166,-4.28101 -0.62341,-0.35054 c -0.34287,-0.1928 -1.47478,-0.83135 -2.51535,-1.41901 -2.05109,-1.15834 -4.07533,-2.19282 -4.29081,-2.19282 -0.21866,0 -2.56921,1.22213 -5.08055,2.64157 l -2.336822,1.3208 0.0176,4.27877 0.0176,4.27877 1.035222,0.60213 c 4.46628,2.59781 5.90516,3.36091 6.34951,3.36745 0.0956,0.001 0.62509,-0.22571 1.17655,-0.50471 z"
       id="path1540" />
    <path
       style="fill:#ff780a;stroke:#ff780a;stroke-width:0.5;stroke-linecap:butt;stroke-linejoin:miter;stroke-opacity:1;fill-opacity:1;opacity:1;stroke-miterlimit:4;stroke-dasharray:none"
       d="m 50.875636,79.957789 1.54383,4.09873 1.33245,0.0273 1.72663,-2.12427 0.17153,8.68767 1.45806,-0.0273 -0.0572,-10.64851 h -1.51523 l -2.31575,2.83234 v 0 l -1.22105,-2.83082 z"
       id="path4595"
       sodipodi:nodetypes="cccccccccccc" />
    <path
       style="fill:#21293d;fill-opacity:1;stroke-width:0;stroke:#21293d;stroke-opacity:1;stroke-miterlimit:4;stroke-dasharray:none"
       d="M 32.04308,69.22645 C 29.476695,68.267148 23.809993,65.174674 10.845636,57.658419 L 5.6360028,54.638067 5.5355177,38.572301 C 5.4783712,29.435595 5.4858762,22.455689 5.552919,22.388647 5.9349645,22.006602 21.822169,13.182984 26.754504,10.613468 31.86386,7.9517319 31.84248,7.9601757 33.472823,7.9601757 c 1.384643,0 1.400236,0.00367 2.801924,0.6598541 3.224084,1.5093142 9.119776,4.7072742 19.986156,10.8409562 l 5.126892,2.893948 0.03179,4.709155 c 0.01748,2.590034 -0.01287,9.863209 -0.06746,16.162609 l -0.09925,11.453454 -3.912629,2.2192 c -12.364532,7.013025 -16.119585,9.087187 -19.495684,10.768744 -2.636331,1.313096 -4.134656,1.953998 -4.542772,1.943152 -0.135754,-0.0036 -0.702174,-0.176767 -1.258712,-0.384798 z m 13.032019,-9.236974 c 0.0068,-0.01008 -0.03412,-7.546759 -0.09099,-16.748183 -0.05687,-9.201423 -0.10799,-18.627148 -0.113597,-20.946055 l -0.0102,-4.216195 H 41.370597 37.88088 L 33.863184,22.9995 c -2.209734,2.706251 -4.056958,4.896192 -4.104944,4.866535 -0.04799,-0.02966 -1.025823,-2.242304 -2.17297,-4.916993 l -2.085724,-4.863071 -3.001931,-0.0035 c -1.651062,-0.0019 -3.001931,0.02878 -3.001931,0.06818 0,0.07104 6.348431,16.969656 6.395386,17.023609 0.01345,0.01546 1.387977,0.06819 3.054503,0.117194 l 3.030048,0.0891 2.630905,-3.261205 2.630906,-3.261203 0.03296,0.78294 c 0.05201,1.235372 0.5746,27.893551 0.574374,29.299711 l -1.35e-4,1.263287 3.609063,-0.09816 c 1.984985,-0.05399 3.614647,-0.106406 3.621473,-0.116483 z"
       id="path13162"
       transform="matrix(0.26458333,0,0,0.26458333,45.405824,74.954837)" />
  </g>
</svg>
